<?xml version="1.0" standalone="no"?>
<!DOCTYPE svg PUBLIC "-//W3C//DTD SVG 20010904//EN"
 "http://www.w3.org/TR/2001/REC-SVG-20010904/DTD/svg10.dtd">
<svg version="1.0" xmlns="http://www.w3.org/2000/svg"
 width="1280.000000pt" height="640.000000pt" viewBox="0 0 1280.000000 640.000000"
 preserveAspectRatio="xMidYMid meet">
<metadata>
Created by potrace 1.15, written by Peter Selinger 2001-2017
</metadata>
<g transform="translate(0.000000,640.000000) scale(0.100000,-0.100000)"
fill="#000000" stroke="none">
<path d="M80 6110 c-68 -30 -98 -107 -65 -170 28 -53 75 -67 265 -74 684 -24
1209 -285 1525 -756 62 -94 153 -265 145 -273 -3 -3 -59 -32 -126 -66 -235
-119 -419 -256 -609 -453 -378 -391 -573 -876 -552 -1373 9 -207 41 -363 113
-543 191 -477 625 -846 1159 -985 190 -50 284 -61 515 -61 243 -1 347 12 568
70 436 113 854 371 1133 700 63 74 74 83 87 71 12 -13 12 -23 -2 -78 -53 -213
-76 -420 -76 -680 l0 -206 -82 -6 c-46 -4 -130 -7 -188 -8 -58 0 -138 -4 -179
-8 -66 -6 -76 -10 -103 -40 -26 -29 -30 -39 -25 -75 4 -29 15 -49 37 -68 36
-33 18 -32 409 -18 303 12 322 16 347 76 11 27 12 51 4 121 -23 200 -6 527 39
748 12 55 21 103 21 108 0 4 27 -6 59 -23 78 -39 235 -101 338 -134 95 -29
291 -76 322 -76 17 0 20 -5 16 -23 -38 -171 -57 -367 -57 -603 l0 -202 -237
-6 c-130 -4 -251 -12 -268 -17 -48 -15 -77 -61 -70 -110 6 -47 21 -68 62 -85
28 -11 285 -7 603 9 115 6 146 49 132 177 -22 185 -8 493 31 714 10 60 19 111
19 113 0 2 4 3 8 3 5 0 25 -35 45 -77 146 -315 208 -653 193 -1062 -10 -253
-9 -261 12 -291 38 -53 63 -57 392 -67 182 -6 318 -6 337 -1 74 20 109 98 77
165 -32 63 -60 73 -240 78 -88 3 -196 8 -241 11 l-83 6 0 108 0 109 43 5 c23
3 136 8 251 11 224 6 268 15 283 58 4 12 7 164 7 337 1 316 13 456 50 584 l11
40 47 -101 c151 -325 223 -772 189 -1166 -12 -128 -11 -140 6 -169 41 -70 36
-69 397 -81 296 -10 329 -9 360 6 46 22 70 68 63 124 -9 83 -62 113 -198 113
-42 0 -143 3 -225 6 l-149 7 -1 201 c0 111 -6 251 -13 311 -33 299 -122 605
-238 828 -20 37 -34 69 -32 71 2 2 49 22 104 45 135 57 270 130 385 208 l95
65 23 -29 c90 -110 193 -297 256 -465 103 -277 153 -679 126 -1011 -11 -138
-11 -149 7 -180 34 -60 55 -64 401 -76 337 -11 354 -10 396 38 11 12 21 41 24
70 4 45 1 52 -30 86 -34 37 -37 38 -124 46 -49 4 -147 8 -219 8 -71 1 -147 4
-167 7 l-38 7 7 101 c8 132 -12 405 -42 581 -61 353 -187 660 -370 899 l-62
82 41 45 c23 24 52 57 64 74 l23 29 27 -34 c95 -125 313 -320 484 -433 801
-527 2022 -668 3046 -351 863 267 1438 794 1578 1445 26 118 26 380 0 498
-110 512 -492 951 -1078 1239 -597 294 -1294 409 -2030 336 -958 -94 -1783
-536 -2138 -1146 l-44 -75 -95 72 c-120 90 -186 129 -342 205 -742 358 -1836
308 -2566 -118 -39 -23 -74 -42 -76 -42 -3 0 -16 17 -28 38 -69 115 -238 299
-372 405 -81 65 -225 153 -333 203 -85 40 -290 114 -317 114 -6 0 -18 4 -26 9
-11 7 -4 24 33 86 169 278 394 480 697 624 257 122 537 185 894 200 155 6 174
9 203 30 35 25 58 84 48 125 -3 14 -20 41 -35 59 l-30 32 -163 -2 c-546 -5
-1045 -169 -1412 -464 -167 -134 -339 -342 -448 -540 l-53 -96 -205 0 c-230 1
-365 -15 -558 -63 -68 -17 -118 -26 -120 -20 -12 33 -97 199 -133 256 -186
298 -436 527 -747 683 -298 151 -644 232 -1044 246 -99 3 -162 1 -178 -5z
m6214 -4400 c-30 -174 -48 -434 -41 -581 l6 -116 -106 -7 c-174 -10 -273 -8
-273 7 0 37 -24 197 -46 307 -27 137 -68 279 -112 388 l-29 70 106 6 c138 8
368 34 451 50 36 7 66 12 66 12 1 -1 -9 -62 -22 -136z"/>
</g>
</svg>
